<?xml version="1.0" encoding="UTF-8"?>
<svg id="Layer_1" xmlns="http://www.w3.org/2000/svg" version="1.1" viewBox="0 0 300 250">
  <!-- Generator: Adobe Illustrator 29.3.1, SVG Export Plug-In . SVG Version: 2.1.0 Build 151)  -->
  <defs>
    <style>
      .st0 {
        fill: #aecc3a;
      }

      .st1 {
        fill: #ee9b00;
      }

      .st2 {
        fill: #fcbd31;
      }

      .st3 {
        fill: #772f1a;
      }
    </style>
  </defs>
  <g>
    <g>
      <rect class="st0" x="161.52" y="85.13" width="39.74" height="6.79"/>
      <rect class="st2" x="174.66" y="98.19" width="39.74" height="6.79"/>
    </g>
    <g>
      <rect class="st0" x="149.62" y="64.06" width="39.74" height="6.79" transform="translate(1.96 139.63) rotate(-45.01)"/>
      <rect class="st2" x="168.14" y="64" width="39.74" height="6.79" transform="translate(7.42 152.7) rotate(-45.01)"/>
    </g>
    <g>
      <rect class="st0" x="142.77" y="41.1" width="6.79" height="39.74"/>
      <rect class="st2" x="155.83" y="27.96" width="6.79" height="39.74"/>
    </g>
    <rect class="st3" x="121.7" y="53.01" width="6.79" height="39.74" transform="translate(-14.89 109.8) rotate(-45)"/>
    <rect class="st1" x="121.64" y="34.48" width="6.79" height="39.74" transform="translate(-1.82 104.32) rotate(-44.99)"/>
    <rect class="st3" x="98.74" y="92.8" width="39.74" height="6.79"/>
    <rect class="st1" x="85.6" y="79.75" width="39.74" height="6.79"/>
    <rect class="st3" x="110.64" y="113.88" width="39.74" height="6.79" transform="translate(-44.7 126.61) rotate(-44.99)"/>
    <rect class="st1" x="92.12" y="113.94" width="39.74" height="6.79" transform="translate(-50.16 113.53) rotate(-44.99)"/>
    <rect class="st3" x="150.44" y="103.88" width="6.79" height="39.74"/>
    <rect class="st1" x="137.39" y="117.02" width="6.79" height="39.74"/>
    <rect class="st3" x="171.52" y="91.98" width="6.79" height="39.74" transform="translate(-27.85 156.46) rotate(-45.01)"/>
    <rect class="st1" x="171.57" y="110.5" width="6.79" height="39.74" transform="translate(-40.94 161.91) rotate(-45)"/>
    <rect class="st3" x="161.52" y="85.13" width="39.74" height="6.79"/>
    <rect class="st1" x="174.66" y="98.19" width="39.74" height="6.79"/>
    <rect class="st3" x="149.62" y="64.06" width="39.74" height="6.79" transform="translate(1.96 139.63) rotate(-45.01)"/>
    <rect class="st1" x="168.14" y="64" width="39.74" height="6.79" transform="translate(7.44 152.74) rotate(-45.02)"/>
    <rect class="st3" x="142.77" y="41.1" width="6.79" height="39.74"/>
    <rect class="st1" x="155.83" y="27.96" width="6.79" height="39.74"/>
  </g>
  <g>
    <path class="st3" d="M29.18,195.23c0-10.13,6.73-16.01,14.88-16.01,4.43,0,7.58,1.89,9.64,3.96l-3.64,4.43c-1.52-1.39-3.15-2.43-5.77-2.43-4.7,0-8.04,3.69-8.04,9.82s2.84,9.93,8.59,9.93c1.22,0,2.49-.32,3.23-.91v-5.27h-5.06v-5.64h11.19v14.08c-2.11,2.06-5.82,3.7-10.08,3.7-8.41,0-14.96-5.37-14.96-15.66Z"/>
    <path class="st3" d="M58.6,198.7c0-7.73,5.44-12.19,11.32-12.19s11.32,4.47,11.32,12.19-5.44,12.18-11.32,12.18-11.32-4.47-11.32-12.18ZM74.19,198.7c0-4.02-1.42-6.64-4.27-6.64s-4.26,2.61-4.26,6.64,1.42,6.62,4.26,6.62,4.27-2.6,4.27-6.62Z"/>
    <path class="st3" d="M85.59,203.09v-25.6h6.89v25.89c0,1.48.68,1.95,1.25,1.95.26,0,.45,0,.84-.09l.82,5.08c-.76.33-1.89.57-3.46.57-4.73,0-6.34-3.08-6.34-7.79Z"/>
    <path class="st3" d="M97.8,198.7c0-7.6,4.75-12.19,9.64-12.19,2.56,0,4.13.95,5.7,2.43l-.25-3.52v-7.92h6.89v32.83h-5.62l-.5-2.3h-.17c-1.64,1.64-3.94,2.87-6.18,2.87-5.78,0-9.51-4.59-9.51-12.18ZM112.89,203.16v-9.55c-1.22-1.09-2.58-1.47-3.85-1.47-2.23,0-4.19,2.06-4.19,6.48s1.58,6.62,4.24,6.62c1.47,0,2.65-.56,3.79-2.08Z"/>
    <path class="st3" d="M124.5,198.7c0-7.54,5.38-12.19,10.97-12.19,6.62,0,9.9,4.81,9.9,11.16,0,1.24-.15,2.48-.29,3.04h-13.91c.62,3.37,2.93,4.92,6.03,4.92,1.76,0,3.34-.54,5.03-1.52l2.28,4.15c-2.38,1.65-5.49,2.62-8.25,2.62-6.63,0-11.76-4.48-11.76-12.18ZM139.48,196.16c0-2.56-1.11-4.4-3.86-4.4-2.18,0-4.06,1.46-4.52,4.4h8.39Z"/>
    <path class="st3" d="M150.12,187.07h5.62l.5,2.94h.17c1.96-1.88,4.3-3.51,7.47-3.51,5.06,0,7.21,3.57,7.21,9.38v14.43h-6.89v-13.55c0-3.34-.9-4.39-2.89-4.39-1.73,0-2.79.8-4.3,2.26v15.68h-6.89v-23.25Z"/>
    <path class="st3" d="M177.51,179.78h11c6.48,0,11.79,2.25,11.79,9.51s-5.31,10.04-11.79,10.04h-4.09v10.99h-6.91v-30.54ZM187.94,193.85c3.63,0,5.58-1.55,5.58-4.56s-1.95-4.03-5.58-4.03h-3.53v8.59h3.53ZM187.24,197.51l4.78-4.42,9.75,17.23h-7.73l-6.8-12.81Z"/>
    <path class="st3" d="M203.84,198.7c0-7.73,5.44-12.19,11.32-12.19s11.32,4.47,11.32,12.19-5.44,12.18-11.32,12.18-11.32-4.47-11.32-12.18ZM219.43,198.7c0-4.02-1.42-6.64-4.27-6.64s-4.26,2.61-4.26,6.64,1.42,6.62,4.26,6.62,4.27-2.6,4.27-6.62Z"/>
    <path class="st3" d="M228.91,207.63l3.1-4.29c2.11,1.59,4.05,2.44,6,2.44,2.05,0,2.94-.78,2.94-2,0-1.53-2.3-2.23-4.7-3.16-2.85-1.1-6.15-2.99-6.15-6.84,0-4.33,3.52-7.28,8.88-7.28,3.56,0,6.21,1.44,8.19,2.94l-3.08,4.14c-1.65-1.2-3.29-1.98-4.9-1.98-1.78,0-2.66.7-2.66,1.86,0,1.48,2.18,2.05,4.59,2.93,2.94,1.09,6.26,2.75,6.26,7s-3.32,7.5-9.55,7.5c-3.07,0-6.57-1.33-8.93-3.25Z"/>
    <path class="st3" d="M250.38,198.7c0-7.54,5.38-12.19,10.97-12.19,6.62,0,9.9,4.81,9.9,11.16,0,1.24-.15,2.48-.29,3.04h-13.91c.62,3.37,2.93,4.92,6.03,4.92,1.76,0,3.34-.54,5.03-1.52l2.28,4.15c-2.38,1.65-5.49,2.62-8.25,2.62-6.63,0-11.76-4.48-11.76-12.18ZM265.36,196.16c0-2.56-1.11-4.4-3.86-4.4-2.18,0-4.06,1.46-4.52,4.4h8.39Z"/>
  </g>
  <g>
    <path class="st3" d="M72.05,162.62h3.77c2.62,0,4.34.96,4.34,3.48s-1.72,3.65-4.34,3.65h-2.85v6.06h-.92v-13.19ZM75.58,168.98c2.33,0,3.63-.92,3.63-2.88s-1.3-2.71-3.63-2.71h-2.61v5.58h2.61ZM75.62,169.49l.88-.26,3.92,6.59h-1.07l-3.73-6.33Z"/>
    <path class="st3" d="M89.85,171.03c0-3.13,2.04-5.06,4.19-5.06,2.28,0,3.68,1.62,3.68,4.45,0,.24,0,.48-.05.72h-6.91c.03,2.43,1.45,4.16,3.62,4.16,1.04,0,1.86-.34,2.58-.85l.37.67c-.76.47-1.62.95-3.03.95-2.45,0-4.44-1.89-4.44-5.03ZM96.89,170.4c0-2.46-1.11-3.68-2.84-3.68-1.63,0-3.1,1.38-3.3,3.68h6.13Z"/>
    <path class="st3" d="M107.14,174.73l.51-.64c.81.68,1.69,1.22,3.05,1.22,1.51,0,2.3-.88,2.3-1.9,0-1.21-1.25-1.73-2.35-2.13-1.45-.51-3.06-1.1-3.06-2.75,0-1.39,1.1-2.56,3.1-2.56,1.03,0,2.05.43,2.75,1l-.48.64c-.65-.48-1.33-.88-2.29-.88-1.5,0-2.18.86-2.18,1.75,0,1.1,1.13,1.51,2.28,1.95,1.49.57,3.14,1.06,3.14,2.93,0,1.45-1.16,2.71-3.24,2.71-1.42,0-2.66-.6-3.52-1.33Z"/>
    <path class="st3" d="M124.12,163.1c0-.5.37-.78.8-.78s.8.29.8.78c0,.46-.37.79-.8.79s-.8-.32-.8-.79ZM124.46,166.2h.88v9.61h-.88v-9.61Z"/>
    <path class="st3" d="M136.25,171.03c0-3.1,1.97-5.06,4.26-5.06,1.15,0,1.94.44,2.9,1.18l-.05-1.77v-3.96h.88v14.4h-.75l-.1-1.25h-.04c-.79.79-1.86,1.49-3.14,1.49-2.41,0-3.98-1.79-3.98-5.03ZM143.37,173.69v-5.7c-1.01-.9-1.86-1.24-2.8-1.24-1.91,0-3.38,1.87-3.38,4.28,0,2.56,1.14,4.25,3.18,4.25,1.06,0,2-.56,3.01-1.58Z"/>
    <path class="st3" d="M155.15,171.03c0-3.13,2.04-5.06,4.19-5.06,2.28,0,3.68,1.62,3.68,4.45,0,.24,0,.48-.05.72h-6.91c.03,2.43,1.45,4.16,3.62,4.16,1.04,0,1.86-.34,2.58-.85l.37.67c-.76.47-1.62.95-3.03.95-2.45,0-4.44-1.89-4.44-5.03ZM162.19,170.4c0-2.46-1.11-3.68-2.84-3.68-1.63,0-3.1,1.38-3.3,3.68h6.13Z"/>
    <path class="st3" d="M173.64,166.2h.75l.1,1.49h.04c.98-.98,1.98-1.73,3.31-1.73,1.99,0,2.91,1.21,2.91,3.69v6.17h-.88v-6.05c0-2.04-.64-3.01-2.19-3.01-1.15,0-1.97.6-3.14,1.81v7.25h-.88v-9.61Z"/>
    <path class="st3" d="M191.5,171.03c0-3.21,2.05-5.06,4.39-5.06,1.31,0,2.16.58,2.81,1.19l-.52.62c-.62-.58-1.34-1.02-2.27-1.02-1.97,0-3.48,1.75-3.48,4.28s1.38,4.25,3.47,4.25c1.03,0,1.91-.5,2.57-1.11l.46.62c-.82.74-1.85,1.27-3.07,1.27-2.48,0-4.36-1.85-4.36-5.03Z"/>
    <path class="st3" d="M208.96,163.1c0-.5.37-.78.8-.78s.8.29.8.78c0,.46-.37.79-.8.79s-.8-.32-.8-.79ZM209.31,166.2h.88v9.61h-.88v-9.61Z"/>
    <path class="st3" d="M221.22,173.42c0-2.14,1.93-3.15,6.2-3.62.03-1.48-.38-3.06-2.27-3.06-1.3,0-2.42.64-3.06,1.13l-.41-.66c.68-.48,2.01-1.25,3.58-1.25,2.28,0,3.05,1.65,3.05,3.71v6.14h-.75l-.1-1.25h-.04c-.98.79-2.15,1.49-3.41,1.49-1.52,0-2.79-.83-2.79-2.63ZM227.42,173.74v-3.27c-3.95.46-5.3,1.37-5.3,2.91,0,1.38.93,1.91,2.04,1.91s2.07-.53,3.26-1.55Z"/>
  </g>
</svg>